<svg width="191" height="60" viewBox="0 0 191 60" fill="none" xmlns="http://www.w3.org/2000/svg">
<path d="M70.9939 46.667C70.5104 46.6449 70.0083 46.6135 69.4938 46.582C69.6673 44.5994 69.7417 42.5097 69.751 40.3918C69.751 39.6648 69.7417 38.9378 69.7262 38.2077C69.596 32.6595 69.3388 29.3268 69.0071 27.3253C68.8398 26.3245 68.66 25.6542 68.4275 25.1727C68.3097 24.9304 68.1796 24.7289 67.9998 24.5653C67.8324 24.4079 67.6 24.2978 67.3706 24.2758C67.352 24.2726 67.3365 24.2726 67.3241 24.2726C67.3024 24.2726 67.2931 24.2726 67.29 24.2726C67.2869 24.2726 67.2869 24.2726 67.2869 24.2726C67.0823 24.2695 66.8778 24.3639 66.7507 24.474C66.5058 24.6975 66.4314 24.9241 66.3508 25.1632C66.0936 26.0444 66.0316 27.5235 65.889 29.4086C65.6875 32.2126 65.3559 35.8002 64.3021 38.664C63.7782 40.0991 63.0777 41.3422 62.1603 42.2296C61.249 43.1108 60.1456 43.6678 58.6764 43.778C56.9128 43.5892 55.862 42.6419 55.0872 41.1408C55.0686 41.103 55.0531 41.0621 55.0345 41.0275C55.0159 40.9394 54.9787 40.8544 54.9229 40.7789C54.272 39.306 53.9465 37.3958 53.8102 35.4478C53.7947 35.2338 53.7854 35.0135 53.7854 34.7869C53.7823 32.7791 54.3991 30.3024 55.4653 28.3953C56.5377 26.4693 57.9976 25.201 59.6001 25.2136C59.6001 25.2136 59.6125 25.2136 59.6373 25.2136C61.5466 25.2482 62.5012 25.9657 63.0684 26.6549C63.3474 27.0011 63.5179 27.3536 63.6171 27.6116C63.6667 27.7407 63.6977 27.8477 63.7162 27.9138C63.7255 27.9484 63.7317 27.9735 63.7348 27.9893C63.7379 28.0019 63.7379 28.0019 63.7379 28.0019C63.7968 28.3449 64.1192 28.5715 64.457 28.5117C64.7949 28.4519 65.018 28.1246 64.9592 27.7816C64.9468 27.7186 64.7856 26.8091 64.0293 25.8619C63.2792 24.9115 61.8844 23.9768 59.6559 23.9579C59.6528 23.9579 59.6311 23.9579 59.6001 23.9579C57.3157 23.9705 55.5583 25.6699 54.3867 27.7784C53.2058 29.9058 52.5518 32.5305 52.5456 34.79C52.5456 35.0449 52.5549 35.2967 52.5735 35.5453C52.716 37.4839 53.0136 39.4319 53.6986 41.0873C53.0632 41.8583 51.1632 43.778 49.3344 43.7339C49.3128 43.7339 49.2911 43.7339 49.2756 43.7339C47.9924 43.7087 46.4457 43.328 45.0261 42.0943C44.5488 41.6789 44.0808 41.1628 43.6437 40.5208C43.9971 40.118 44.3349 39.6994 44.6511 39.2683C46.9757 36.1055 48.3953 32.2378 48.4046 29.1191C48.4046 27.8256 48.1566 26.6424 47.5615 25.6982C46.9726 24.7541 45.9963 24.0901 44.7565 23.9139C44.7224 23.9107 44.6449 23.9013 44.524 23.9013C44.0684 23.8981 42.9091 24.0303 41.8925 25.1192C40.8758 26.2081 40.07 28.1529 40.0731 31.5801C40.0731 32.6658 40.1537 33.9026 40.3334 35.3187L40.3365 35.3408L40.3396 35.3628C40.7519 37.4115 41.3563 39.0543 42.0847 40.3634C40.1258 42.3429 37.7515 43.6552 35.2254 43.649C34.7977 43.649 34.3637 43.6112 33.9236 43.5357L33.9081 43.5325H33.905C32.8977 43.3783 32.2468 42.9062 31.7074 42.088C30.7652 40.6593 30.3932 38.085 30.2879 35.0638C30.1112 30.5258 30.449 25.009 29.5657 20.4962C29.1224 18.2397 28.3662 16.2099 27.021 14.693C25.6758 13.173 23.7262 12.2352 21.1319 12.1597H21.1133C21.0389 12.1597 20.949 12.1597 20.8529 12.1597C20.0501 12.1502 18.7173 12.2478 17.2079 13.4311C16.0858 14.3028 14.8429 15.7316 13.4729 18.0981C13.3893 17.8086 13.2994 17.5285 13.2033 17.2579C12.6671 15.7158 11.979 14.4381 11.0801 13.516C10.1874 12.594 9.04372 12.0464 7.75432 12.0495C7.68303 12.0495 7.61484 12.0527 7.54975 12.0558C6.11157 12.1125 4.94615 12.8552 4.07208 13.8433C1.47468 16.811 0.891969 22.1012 0.870272 22.1484C0.826879 22.4945 1.06864 22.8061 1.40959 22.8502C1.75054 22.8942 2.06049 22.6488 2.10078 22.3026C2.10078 22.3026 2.16587 21.7487 2.34565 20.8927C2.61221 19.6119 3.13602 17.6764 4.01319 16.0998C4.90275 14.5074 6.06508 13.3681 7.60864 13.3083C7.66133 13.3052 7.71402 13.3052 7.76052 13.3052C8.71207 13.3115 9.48695 13.6702 10.206 14.3972C11.2506 15.4357 12.0534 17.2893 12.6082 19.6905C12.4036 20.0902 12.1959 20.5119 11.9852 20.9556C9.73182 25.7171 8.74617 32.1402 8.74307 37.0968C8.74307 39.1959 8.91974 41.0306 9.27618 42.3933C9.45906 43.0762 9.67912 43.6458 9.99218 44.0958C10.2928 44.5364 10.764 44.9015 11.3467 44.9015C11.4397 44.9015 11.5326 44.892 11.6256 44.8731C12.2114 44.7662 12.7879 44.464 13.1816 43.9165C13.7736 43.0982 14.0464 41.9181 14.2664 39.9669C14.4772 38.0126 14.595 35.2715 14.7128 31.3724C14.7344 30.6328 14.7437 29.9058 14.7437 29.1915C14.7437 25.7297 14.4865 22.5418 13.9193 19.8636C15.4969 16.8802 16.8669 15.2752 17.9642 14.4287C19.2567 13.4437 20.1276 13.4248 20.856 13.4153C20.9366 13.4153 21.0172 13.4153 21.0978 13.4153C24.6405 13.557 26.4197 15.2375 27.551 17.9345C29.2185 21.9942 28.9179 28.3229 29.0171 33.7641C29.0729 36.4926 29.2309 39.0039 29.8601 40.9834C30.4645 42.9503 31.695 44.4924 33.7376 44.7724C34.2429 44.8606 34.7419 44.9015 35.2347 44.9015C38.1142 44.8952 40.6868 43.4822 42.7759 41.4397C43.2284 42.0723 43.715 42.6041 44.2233 43.0447C45.8909 44.4987 47.7537 44.9613 49.257 44.9864C49.2663 44.9864 49.2756 44.9864 49.2849 44.9864C49.3035 44.9864 49.319 44.9864 49.3344 44.9864C50.9586 44.977 52.3317 44.0801 53.3204 43.2367C53.711 42.9 54.0426 42.5664 54.2999 42.2831C55.2049 43.7717 56.6245 44.8669 58.6144 45.0337L58.6609 45.0368L58.7105 45.0337C61.3203 44.8732 63.1738 43.4003 64.364 41.424C66.1618 38.4563 66.7135 34.34 67.011 30.9569C67.1567 29.267 67.2311 27.7595 67.3427 26.7084C67.3675 26.4504 67.3985 26.2175 67.4295 26.0224C67.5814 26.463 67.7642 27.1962 67.8944 28.282C68.1579 30.2489 68.3717 33.3865 68.4833 38.236C68.4988 38.9567 68.5081 39.6742 68.5081 40.3918C68.5081 42.4971 68.4306 44.5679 68.2539 46.5191C67.8107 46.5002 67.3613 46.4876 66.9088 46.4876C64.0138 46.4813 60.9174 46.9974 58.664 49.6755C57.4614 51.1011 56.9035 52.9296 56.9004 54.6542C56.9004 55.935 57.2103 57.1686 57.855 58.1442C58.4904 59.1167 59.5009 59.8247 60.7655 59.9349C61.0816 59.9789 61.3885 60.001 61.6892 60.001C61.6954 60.001 61.7047 60.001 61.7108 60.001C63.3102 60.001 64.6802 59.3338 65.734 58.226C67.789 56.0357 68.8615 52.2624 69.3667 47.8377C69.8967 47.8691 70.4205 47.9006 70.935 47.9258C71.276 47.9415 71.5673 47.674 71.5828 47.3278C71.6014 46.9785 71.3349 46.6858 70.9939 46.667ZM13.4698 31.3346C13.318 36.5178 13.1506 39.6459 12.8003 41.4366C12.6299 42.3303 12.4098 42.8716 12.1897 43.1643C11.9666 43.4507 11.7744 43.5577 11.3901 43.6395C11.3746 43.6427 11.3591 43.6427 11.3436 43.6427C11.2878 43.6427 11.1917 43.6269 10.9995 43.3657C10.7268 42.9881 10.4416 42.1636 10.2618 41.0747C10.079 39.9827 9.97978 38.6168 9.97978 37.0968C9.97668 32.3888 10.9313 26.1986 12.9956 21.7267C13.3428 23.939 13.5132 26.4787 13.5039 29.1915C13.5008 29.8932 13.4915 30.6076 13.4698 31.3346ZM41.5639 35.1299C41.3904 33.7704 41.316 32.5934 41.316 31.5769C41.316 28.3323 42.0754 26.7525 42.7945 25.9846C43.5135 25.2167 44.2729 25.1601 44.5271 25.1569C44.5581 25.1569 44.5798 25.1569 44.5922 25.1601C45.5127 25.3049 46.0985 25.7203 46.5232 26.378C46.9447 27.0389 47.171 27.9861 47.1679 29.1191C47.1772 31.8507 45.8506 35.5611 43.6623 38.513C43.4423 38.812 43.2129 39.1046 42.9773 39.3847C42.407 38.2675 41.9173 36.8734 41.5639 35.1299ZM66.9893 53.367C66.4407 55.0696 65.7216 56.4354 64.8476 57.348C63.9673 58.2575 62.9724 58.7359 61.6923 58.7422C61.4474 58.7422 61.1932 58.7233 60.9267 58.6855L60.9112 58.6824H60.8957C60.0092 58.6005 59.3676 58.1568 58.8872 57.4424C58.413 56.7281 58.1433 55.7273 58.1433 54.6542C58.1402 53.2097 58.6268 51.6519 59.6094 50.4969C61.5249 48.2248 64.1254 47.7558 66.915 47.7495C67.3179 47.7495 67.7239 47.759 68.13 47.7747C67.882 49.8518 67.5132 51.7557 66.9893 53.367ZM190.276 0.00265405C189.935 -0.0225223 189.638 0.238682 189.613 0.584856C189.182 6.57682 186.033 11.5491 181.957 15.4106C177.887 19.2657 172.9 21.9784 168.945 23.4072C168.214 23.6715 167.479 23.917 166.748 24.1405C165.247 23.2687 162.653 22.6204 159.526 22.1326C159.457 19.8353 159.219 17.7708 158.813 16.1659C158.571 15.2092 158.273 14.4161 157.883 13.8087C157.502 13.2139 156.95 12.7356 156.228 12.7324C156.203 12.7324 156.181 12.7324 156.156 12.7356C155.484 12.7513 154.96 13.2013 154.613 13.7489C154.067 14.5986 153.72 15.8354 153.475 17.3775C153.286 18.5733 153.172 19.9517 153.131 21.4434C151.389 21.3301 149.626 21.2703 147.933 21.2703C147.484 21.2703 147.044 21.2766 146.607 21.2829C146.56 19.1052 146.334 17.1729 145.894 15.6875C145.643 14.8535 145.33 14.1549 144.899 13.623C144.474 13.0912 143.867 12.7198 143.179 12.723C143.12 12.723 143.055 12.7261 142.987 12.7324C142.326 12.7545 141.765 13.1478 141.381 13.6734C140.783 14.4822 140.411 15.6497 140.147 17.1005C139.899 18.4915 139.775 20.1374 139.766 21.9312C138.737 22.1547 137.879 22.4348 137.218 22.8155C136.552 23.1963 136.003 23.7754 135.991 24.5747C136 25.1853 136.36 25.651 136.781 25.9594C137.531 26.5102 138.619 26.8375 139.915 27.1081C139.955 27.1176 139.996 27.1238 140.036 27.1301C140.38 30.4629 141.062 33.9026 142.091 36.8671C142.224 37.2542 142.367 37.6318 142.512 38C141.896 39.4823 141.183 40.76 140.405 41.7135C139.351 42.9975 138.232 43.671 137.017 43.671C136.403 43.6647 135.935 43.4507 135.486 43.0195C134.698 42.2674 134.085 40.7537 133.697 38.9032C133.102 36.1338 132.95 32.6563 132.851 29.8681C132.802 28.4739 132.764 27.2529 132.684 26.3465C132.643 25.8902 132.594 25.522 132.513 25.2104C132.47 25.0531 132.423 24.9083 132.324 24.751C132.237 24.6062 132.02 24.3828 131.692 24.367C131.673 24.367 131.661 24.367 131.661 24.367C131.413 24.3639 131.199 24.5055 131.1 24.6219C130.898 24.8611 130.855 25.0594 130.787 25.2954C130.579 26.1514 130.499 27.662 130.35 29.5597C130.13 32.392 129.78 36.0079 128.84 38.8466C128.375 40.2659 127.759 41.4806 126.993 42.302C126.218 43.1265 125.338 43.5797 124.154 43.586C124.014 43.586 123.872 43.5797 123.723 43.5671C121.535 43.1895 120.221 42.066 119.359 40.5114C118.503 38.9536 118.172 36.9395 118.166 34.9568V34.9379V34.9285V34.9222C118.163 32.9994 118.767 30.5006 119.901 28.5495C121.045 26.5826 122.638 25.223 124.631 25.2041C124.672 25.2041 124.706 25.201 124.74 25.201C126.779 25.2104 127.638 25.8399 128.075 26.4C128.512 26.9665 128.524 27.5833 128.524 27.6022C128.524 27.6179 128.524 27.6305 128.524 27.64C128.54 27.9861 128.828 28.2568 129.169 28.2442C129.51 28.2285 129.776 27.9358 129.764 27.5896C129.761 27.385 129.721 26.5102 129.057 25.6321C128.375 24.7227 127.033 23.9327 124.743 23.9422C124.703 23.9422 124.656 23.9422 124.61 23.9453C122.031 23.9768 120.084 25.7423 118.835 27.9106C117.577 30.0947 116.935 32.7445 116.929 34.9222C116.929 34.9285 116.929 34.9474 116.929 34.9757C116.932 35.7845 116.988 36.6027 117.106 37.4115C117.075 37.55 116.991 37.8867 116.855 38.3493C116.582 39.2683 116.092 40.6561 115.395 41.7796C114.691 42.9188 113.826 43.6962 112.9 43.7182C112.807 43.7213 112.71 43.7213 112.621 43.7213C110.454 43.7182 108.811 42.8779 107.553 41.6821C107.987 41.0086 108.368 40.2627 108.693 39.4728C109.794 36.7884 110.349 33.5784 110.352 30.7713C110.349 28.9806 110.129 27.3567 109.626 26.1074C109.375 25.4842 109.05 24.9461 108.61 24.5433C108.182 24.1436 107.618 23.895 107.01 23.8887C107.004 23.8887 106.989 23.8887 106.964 23.8887C106.05 23.8855 105.259 24.2128 104.667 24.7478C103.778 25.5566 103.31 26.7399 103.028 27.9987C102.749 29.2575 102.668 30.6139 102.668 31.8066C102.668 33.1536 102.77 34.2928 102.826 34.8341C102.935 35.8411 103.536 38.2707 105.027 40.5648C105.296 40.9803 105.6 41.3925 105.938 41.7891C105.749 42.0219 105.551 42.2391 105.346 42.4342C104.475 43.2713 103.523 43.7245 102.473 43.7276C102.274 43.7276 102.07 43.7119 101.862 43.6773C99.8846 43.029 98.6634 41.6474 97.873 39.819C97.5662 39.1015 97.3337 38.3179 97.1663 37.4996C97.3988 36.5241 97.5848 35.5107 97.7397 34.5037C98.183 31.5675 98.3224 28.669 98.3224 26.8028C98.3224 26.2206 98.31 25.7391 98.2852 25.3804C98.2729 25.201 98.2605 25.0531 98.2419 24.9241C98.2326 24.858 98.2202 24.8013 98.2047 24.7352C98.1799 24.666 98.183 24.6062 98.0714 24.4457C98.0032 24.3513 97.8234 24.194 97.5662 24.194C97.3213 24.2002 97.2004 24.3072 97.1322 24.3639C97.0051 24.4866 96.9772 24.5559 96.9339 24.6314C96.8006 24.8989 96.6828 25.2639 96.534 25.8084C96.1063 27.4102 95.5639 30.3622 95.5639 33.5155C95.5639 34.8278 95.6568 36.1747 95.9017 37.4745C95.4833 39.1581 94.9285 40.6876 94.2342 41.7859C93.4841 42.9692 92.6503 43.608 91.6616 43.6678C91.6213 43.671 91.5779 43.671 91.5252 43.671C90.7689 43.6615 90.2451 43.3122 89.7337 42.5412C88.9805 41.3894 88.5218 39.3281 88.3017 37.0465C88.0754 34.7586 88.0568 32.2441 88.0568 30.1041C88.0568 29.7264 88.0568 29.3614 88.0568 29.0121C88.0568 27.8382 88.0506 26.8343 87.9979 26.0853C87.97 25.7077 87.9328 25.4024 87.8584 25.1318C87.8182 24.9933 87.7748 24.8643 87.6725 24.7164C87.5888 24.581 87.3842 24.3985 87.1115 24.3733C87.0867 24.3702 87.0619 24.367 87.0402 24.3702C86.7922 24.367 86.5876 24.5024 86.4854 24.6157C86.2808 24.8454 86.225 25.0405 86.1506 25.2765C85.9057 26.1325 85.7663 27.64 85.5431 29.5408C85.2177 32.3731 84.7434 35.9891 83.7423 38.834C83.2433 40.2564 82.6109 41.4743 81.8485 42.302C81.0767 43.1297 80.2274 43.5766 79.124 43.5829C79.0217 43.5829 78.9163 43.5797 78.8109 43.5703C76.6258 43.1926 75.3798 42.0786 74.5429 40.5208C73.7122 38.9599 73.3775 36.9269 73.2535 34.9222C73.2442 34.7586 73.238 34.5886 73.238 34.4155C73.2349 32.5147 73.8827 30.1513 75.0388 28.326C76.2011 26.485 77.8036 25.2262 79.7191 25.2073C79.7563 25.2073 79.7873 25.2073 79.8307 25.2073C81.9415 25.2167 82.9364 25.8871 83.4695 26.4913C83.7361 26.7966 83.8849 27.1018 83.9685 27.3253C84.0088 27.4354 84.0336 27.5267 84.046 27.5833C84.0522 27.6116 84.0553 27.6337 84.0584 27.6431V27.6463C84.0987 27.9924 84.4087 28.2379 84.7496 28.197C85.0906 28.1561 85.3323 27.8414 85.292 27.4983C85.2827 27.4228 85.1712 26.5479 84.4025 25.6636C83.6369 24.773 82.208 23.9453 79.8338 23.9548C79.7966 23.9548 79.7532 23.9548 79.6974 23.9548C77.2271 23.9862 75.2837 25.607 73.9974 27.6557C72.7049 29.717 72.0044 32.2472 72.0013 34.425C72.0013 34.6232 72.0075 34.8184 72.0199 35.0135C72.1532 37.1 72.4879 39.2903 73.4549 41.125C74.4096 42.9597 76.0803 44.4137 78.6343 44.8259L78.656 44.8291L78.6807 44.8322C78.8326 44.8448 78.9814 44.8511 79.1271 44.8511C81.306 44.8574 82.8806 43.4255 83.9189 41.5279C85.4997 38.6672 86.1692 34.5697 86.6031 31.1646C86.6837 30.5289 86.755 29.9153 86.8201 29.3425C86.8201 29.5943 86.8201 29.8523 86.8201 30.1167C86.8201 32.9836 86.848 36.5555 87.3873 39.476C87.6601 40.9394 88.0568 42.2422 88.6953 43.243C89.3214 44.2406 90.3009 44.9518 91.5252 44.9424C91.5872 44.9424 91.6554 44.9424 91.7298 44.9361C93.2578 44.8448 94.4325 43.8346 95.2787 42.4751C95.7684 41.6946 96.1745 40.7789 96.5185 39.7844C96.5867 39.9701 96.6611 40.1557 96.7386 40.3383C97.6158 42.4122 99.15 44.1556 101.53 44.9078L101.571 44.9204L101.611 44.9266C101.899 44.977 102.184 45.0022 102.463 45.0022C102.467 45.0022 102.47 45.0022 102.476 45.0022C103.902 45.0053 105.172 44.3602 106.201 43.3626C106.412 43.158 106.617 42.9409 106.809 42.708C108.25 44.0297 110.166 44.9927 112.624 44.9896C112.732 44.9896 112.838 44.9864 112.943 44.9833C114.003 44.9424 114.874 44.3791 115.543 43.6584C116.554 42.5601 117.248 41.0401 117.694 39.8001C117.859 40.2596 118.051 40.7033 118.283 41.1282C119.275 42.966 120.999 44.4042 123.549 44.8165L123.562 44.8197L123.59 44.8228C123.782 44.8417 123.974 44.8511 124.16 44.8511C126.423 44.8606 128.041 43.4318 129.064 41.5216C130.62 38.6452 131.159 34.5446 131.472 31.1363C131.525 30.5636 131.568 30.0097 131.608 29.4841C131.711 32.3196 131.835 36.03 132.482 39.0983C132.814 40.653 133.27 42.0503 133.976 43.1171C134.667 44.1745 135.706 44.9266 137.005 44.9266C137.014 44.9266 137.02 44.9266 137.026 44.9266C138.728 44.9266 140.191 43.9637 141.369 42.5129C142.044 41.6758 142.652 40.6656 143.194 39.5326C143.749 40.675 144.378 41.6915 145.088 42.5349C146.3 43.97 147.809 44.9141 149.564 44.9266C149.567 44.9266 149.573 44.9267 149.576 44.9298C149.663 44.9329 149.747 44.9361 149.833 44.9361C151.65 44.9392 153.212 44.0927 154.449 42.752C155.134 42.0031 155.741 41.0998 156.277 40.0834C156.752 41.0967 157.288 42.0062 157.892 42.7678C159.011 44.1871 160.431 45.1312 162.111 45.1532H162.173L162.228 45.1438C164.888 44.6529 166.903 42.6513 168.238 40.1494C169.577 37.6381 170.275 34.5886 170.278 31.7783C170.278 30.9569 170.216 30.1576 170.095 29.396C169.804 27.599 169.038 26.1136 167.978 25.0657C168.446 24.9146 168.911 24.7541 169.379 24.5842C173.483 23.0988 178.591 20.3262 182.819 16.3232C187.043 12.3265 190.403 7.07091 190.865 0.669827C190.874 0.329946 190.62 0.0278304 190.276 0.00265405ZM106.669 40.7411C106.449 40.4641 106.242 40.1778 106.05 39.8851C104.698 37.8332 104.119 35.4698 104.05 34.7208C103.998 34.2015 103.898 33.1032 103.898 31.8224C103.895 30.3087 104.044 28.54 104.531 27.234C104.773 26.5794 105.092 26.0507 105.479 25.7045C105.87 25.3584 106.313 25.1632 106.952 25.1601H106.955H106.97C107.28 25.1664 107.516 25.2639 107.77 25.4905C108.554 26.1546 109.121 28.2599 109.1 30.7839C109.103 33.4211 108.563 36.5083 107.537 39.0008C107.28 39.627 106.989 40.2124 106.669 40.7411ZM159.547 23.467C159.547 23.445 159.547 23.4261 159.547 23.404C161.698 23.7439 163.583 24.1845 164.9 24.666C163.016 25.1695 161.181 25.5472 159.485 25.8336C159.526 25.0311 159.547 24.238 159.547 23.467ZM154.963 16.2414C155.158 15.4389 155.406 14.8126 155.648 14.4413C155.905 14.0573 156.079 13.9944 156.194 13.9944H156.222H156.24C156.367 13.9975 156.572 14.0888 156.848 14.5042C157.26 15.1305 157.654 16.3547 157.908 17.9219C158.1 19.0989 158.227 20.4679 158.28 21.9501C157.024 21.7833 155.707 21.6417 154.365 21.5347C154.424 19.4388 154.632 17.5915 154.963 16.2414ZM158.308 23.2215C158.308 23.3033 158.308 23.3852 158.308 23.467C158.308 24.3009 158.286 25.1601 158.239 26.035C156.851 26.2427 155.58 26.3843 154.486 26.4818C154.396 25.2199 154.349 23.9768 154.353 22.7967C155.713 22.9037 157.046 23.0484 158.308 23.2215ZM153.113 22.7023C153.113 22.718 153.113 22.7369 153.113 22.7526C153.113 23.98 153.159 25.2671 153.252 26.5763C152.146 26.6518 151.309 26.6738 150.828 26.6738C150.165 26.6738 148.423 26.6644 146.39 26.5605C146.52 25.1821 146.594 23.8289 146.61 22.5418C147.047 22.5323 147.487 22.526 147.933 22.526C149.62 22.526 151.377 22.5858 153.113 22.7023ZM145.156 26.4881C144.453 26.4409 143.734 26.3811 143.027 26.3056C142.388 26.2395 141.765 26.1577 141.17 26.0633C141.08 25.009 141.025 23.9737 141.006 22.9792C141.245 22.9414 141.49 22.9037 141.744 22.869C142.832 22.7243 144.059 22.6267 145.367 22.5732C145.358 23.8257 145.286 25.1444 145.156 26.4881ZM141.641 16.0935C141.849 15.3508 142.106 14.778 142.367 14.4381C142.636 14.092 142.838 13.9975 143.042 13.9912H143.073L143.101 13.9881C143.123 13.985 143.148 13.985 143.179 13.985C143.439 13.9912 143.662 14.092 143.944 14.4287C144.75 15.3634 145.314 18.0383 145.37 21.3207C143.777 21.3836 142.299 21.5127 141.006 21.7109C141.034 19.4639 141.251 17.4845 141.641 16.0935ZM138.746 25.522C138.198 25.3458 137.764 25.1412 137.516 24.9524C137.259 24.7541 137.231 24.6408 137.231 24.5747C137.228 24.4426 137.333 24.2097 137.835 23.9107C138.269 23.6558 138.942 23.4198 139.779 23.2215C139.8 24.0681 139.844 24.9398 139.912 25.8241C139.487 25.736 139.094 25.6321 138.746 25.522ZM143.179 36.2188C142.274 33.5344 141.641 30.4062 141.3 27.3536C142.497 27.5298 143.783 27.6525 145.02 27.7375C144.66 30.6674 144.044 33.6445 143.179 36.2188ZM153.534 41.8929C152.453 43.051 151.253 43.6773 149.821 43.6804C149.753 43.6804 149.685 43.6804 149.613 43.6773C149.607 43.6773 149.601 43.6773 149.598 43.6773C149.595 43.6773 149.592 43.6773 149.592 43.6773C148.277 43.6741 147.106 42.9975 146.021 41.723C145.203 40.7694 144.477 39.4917 143.854 38.0032C145.038 34.9946 145.838 31.3661 146.26 27.813C148.358 27.92 150.143 27.9295 150.835 27.9295C151.346 27.9295 152.217 27.9043 153.361 27.8288C153.664 31.0702 154.256 34.3841 155.168 37.2353C155.313 37.6916 155.468 38.1353 155.63 38.5633C155.025 39.9008 154.325 41.0432 153.534 41.8929ZM154.591 27.7312C155.639 27.64 156.845 27.5046 158.156 27.3158C157.895 30.5982 157.3 33.9718 156.327 36.7853C155.468 34.0757 154.889 30.872 154.591 27.7312ZM168.855 29.6069C168.967 30.2929 169.023 31.0262 169.023 31.7846C169.026 34.3809 168.362 37.2668 167.135 39.5547C165.917 41.8331 164.181 43.4916 162.055 43.9007C160.871 43.8598 159.82 43.2084 158.844 41.9842C158.137 41.103 157.511 39.9417 156.969 38.5917C158.357 35.281 159.12 31.1237 159.411 27.1238C161.609 26.7619 164.054 26.2458 166.555 25.5063C167.677 26.3402 168.545 27.7281 168.855 29.6069Z" fill="url(#paint0_linear)"/>
<defs>
<linearGradient id="paint0_linear" x1="2.00495" y1="29.9996" x2="186.104" y2="29.9996" gradientUnits="userSpaceOnUse">
<stop stop-color="#1A437E"/>
<stop offset="0.0552" stop-color="#1A437E"/>
<stop offset="0.3449" stop-color="#154C88"/>
<stop offset="0.8348" stop-color="#0664A3"/>
<stop offset="0.9996" stop-color="#006DAD"/>
</linearGradient>
</defs>
</svg>
